<?xml version="1.0" encoding="UTF-8"?>
<!DOCTYPE svg PUBLIC "-//W3C//DTD SVG 1.1//EN" "http://www.w3.org/Graphics/SVG/1.1/DTD/svg11.dtd">
<svg xmlns="http://www.w3.org/2000/svg" version="1.1" width="32px" height="32px" style="shape-rendering:geometricPrecision; text-rendering:geometricPrecision; image-rendering:optimizeQuality; fill-rule:evenodd; clip-rule:evenodd" xmlns:xlink="http://www.w3.org/1999/xlink">
<g><path style="opacity:0.59" fill="#043566" d="M 16.5,-0.5 C 18.8333,-0.5 21.1667,-0.5 23.5,-0.5C 25.3618,2.56631 26.6951,5.89964 27.5,9.5C 29.2156,10.5487 30.5489,11.882 31.5,13.5C 31.5,17.5 31.5,21.5 31.5,25.5C 30.0655,27.4903 28.2322,29.157 26,30.5C 25.2917,29.6195 24.4584,28.9528 23.5,28.5C 23.9887,27.0048 24.6554,25.6715 25.5,24.5C 27.1238,24.6399 28.2904,23.9733 29,22.5C 29.7901,19.366 29.4568,16.366 28,13.5C 26.6485,15.5938 26.1485,17.9272 26.5,20.5C 25.1667,20.5 23.8333,20.5 22.5,20.5C 22.6567,19.1266 22.49,17.7932 22,16.5C 21.6532,18.1802 20.6532,19.1802 19,19.5C 17.124,18.381 16.2907,16.7144 16.5,14.5C 16.5852,13.0047 15.9185,12.0047 14.5,11.5C 11.9253,13.7061 9.59201,16.0394 7.5,18.5C 7.5,18.1667 7.5,17.8333 7.5,17.5C 7.5,16.5 7.5,15.5 7.5,14.5C 10.9347,9.75343 13.9347,4.75343 16.5,-0.5 Z M 16.5,2.5 C 20.2773,3.90311 22.7773,6.56977 24,10.5C 24.1218,12.1686 23.7885,13.8353 23,15.5C 20.9669,11.9664 18.1335,9.29974 14.5,7.5C 15.4565,5.92464 16.1231,4.25797 16.5,2.5 Z"/></g>
<g><path style="opacity:0.601" fill="#0998fa" d="M -0.5,10.5 C 2.99678,10.2945 5.66345,11.6278 7.5,14.5C 7.5,15.5 7.5,16.5 7.5,17.5C 6.16667,17.8333 6.16667,18.1667 7.5,18.5C 9.59201,16.0394 11.9253,13.7061 14.5,11.5C 15.9185,12.0047 16.5852,13.0047 16.5,14.5C 14.6096,14.2965 13.1096,14.9632 12,16.5C 11.8078,18.5767 11.3078,20.5767 10.5,22.5C 5.69407,20.8083 4.52741,22.1416 7,26.5C 9.63102,26.0303 12.131,26.6969 14.5,28.5C 16.0293,28.4712 17.196,27.8045 18,26.5C 19.3333,27.8333 20.6667,27.8333 22,26.5C 22.4935,24.8659 22.6602,23.1992 22.5,21.5C 23.5,21.5 24.5,21.5 25.5,21.5C 25.5,22.5 25.5,23.5 25.5,24.5C 24.6554,25.6715 23.9887,27.0048 23.5,28.5C 22.6935,29.7281 21.6935,30.7281 20.5,31.5C 19.8333,31.5 19.1667,31.5 18.5,31.5C 18.1667,30.1667 17.8333,30.1667 17.5,31.5C 15.5,31.5 13.5,31.5 11.5,31.5C 5.014,30.3695 2.34733,26.5361 3.5,20C 2.26416,18.6125 0.930828,17.4458 -0.5,16.5C -0.5,14.5 -0.5,12.5 -0.5,10.5 Z"/></g>
</svg>
