<?xml version="1.0" standalone="no"?>
<!DOCTYPE svg PUBLIC "-//W3C//DTD SVG 20010904//EN"
 "http://www.w3.org/TR/2001/REC-SVG-20010904/DTD/svg10.dtd">
<svg version="1.0" xmlns="http://www.w3.org/2000/svg"
 width="32.000000pt" height="32.000000pt" viewBox="0 0 32.000000 32.000000"
 preserveAspectRatio="xMidYMid meet">

<g transform="translate(0.000000,32.000000) scale(0.100000,-0.100000)"
fill="#000000" stroke="none">
<path d="M164 298 c-10 -13 -12 -17 -4 -10 19 16 55 15 70 -3 19 -22 30 -85
19 -111 -5 -15 -5 -24 1 -24 5 0 13 12 16 27 l7 26 19 -22 c10 -13 18 -20 18
-16 0 4 -11 20 -25 37 -14 16 -25 38 -25 47 0 26 -38 71 -59 71 -10 0 -26 -10
-37 -22z"/>
<path d="M118 213 c-16 -19 -38 -58 -38 -67 0 -3 5 -6 10 -6 6 0 10 6 10 13 0
21 36 49 57 45 11 -2 20 -15 23 -32 6 -33 24 -45 33 -21 9 22 0 37 -36 63 -40
27 -40 27 -59 5z m84 -65 c-9 -9 -12 -7 -12 12 0 19 3 21 12 12 9 -9 9 -15 0
-24z"/>
<path d="M310 124 c0 -32 -17 -64 -33 -64 -7 0 -13 -9 -13 -21 0 -19 3 -18 28
10 19 22 28 42 28 66 0 19 -2 35 -5 35 -3 0 -5 -12 -5 -26z"/>
</g>
</svg>
